<?xml version="1.0" standalone="no"?>
<!DOCTYPE svg PUBLIC "-//W3C//DTD SVG 20010904//EN"
 "http://www.w3.org/TR/2001/REC-SVG-20010904/DTD/svg10.dtd">
<svg version="1.0" xmlns="http://www.w3.org/2000/svg"
 width="512.000000pt" height="512.000000pt" viewBox="0 0 512.000000 512.000000"
 preserveAspectRatio="xMidYMid meet">

<g transform="translate(0.000000,512.000000) scale(0.100000,-0.100000)"
fill="#ffffff" stroke="none">
<path d="M3610 5105 c-239 -39 -443 -131 -631 -284 -160 -129 -195 -186 -146
-235 46 -46 74 -37 177 59 110 103 181 152 303 210 554 266 1212 50 1504 -493
203 -376 184 -814 -51 -1177 -49 -76 -137 -169 -577 -610 -453 -455 -519 -525
-519 -551 0 -62 55 -98 108 -70 50 26 1022 1014 1084 1102 108 152 180 320
224 519 26 122 24 369 -4 502 -111 514 -490 898 -1002 1014 -115 26 -355 34
-470 14z"/>
<path d="M3730 4579 c-87 -8 -141 -21 -225 -56 -135 -57 -184 -99 -669 -582
-257 -256 -497 -500 -533 -541 -72 -83 -143 -217 -170 -320 -24 -89 -24 -291
1 -379 34 -126 116 -272 191 -341 84 -77 93 -196 22 -277 -39 -44 -82 -63
-143 -63 -64 0 -105 22 -169 92 -229 247 -341 601 -294 934 23 165 96 356 190
496 25 37 194 216 415 438 205 206 377 386 382 400 22 57 -30 112 -90 96 -33
-8 -734 -715 -805 -812 -369 -503 -328 -1213 97 -1657 41 -44 97 -91 125 -105
44 -24 61 -27 150 -27 118 0 171 20 243 93 67 66 96 139 96 237 0 101 -26 163
-112 259 -118 133 -166 259 -166 431 0 97 4 120 30 195 17 47 47 110 67 140
20 30 269 287 554 571 567 565 571 569 728 609 402 103 776 -181 778 -590 1
-107 -14 -173 -65 -280 -40 -83 -48 -92 -391 -437 -343 -345 -350 -353 -343
-385 3 -18 16 -41 27 -50 49 -41 53 -38 412 320 407 404 439 447 495 657 19
74 21 247 3 330 -39 183 -152 358 -296 460 -165 117 -329 161 -535 144z"/>
<path d="M1537 4512 c-10 -10 -17 -34 -17 -52 0 -54 89 -373 110 -394 36 -37
101 -20 120 30 11 27 -83 390 -107 417 -22 23 -85 23 -106 -1z"/>
<path d="M942 4167 c-46 -49 -35 -70 126 -230 82 -81 156 -147 165 -147 50 0
96 55 83 97 -3 11 -71 83 -149 161 -121 119 -148 142 -174 142 -18 0 -38 -9
-51 -23z"/>
<path d="M597 3572 c-23 -25 -22 -85 2 -106 27 -25 387 -117 415 -106 50 19
67 84 30 120 -21 21 -345 110 -398 110 -19 0 -40 -8 -49 -18z"/>
<path d="M2800 3234 c-108 -39 -186 -127 -216 -243 -30 -121 0 -219 105 -336
180 -202 219 -468 104 -704 -34 -71 -60 -99 -374 -416 -226 -228 -340 -349
-345 -368 -10 -43 22 -81 71 -85 39 -3 40 -2 370 330 367 368 399 409 455 576
87 260 26 552 -156 751 -81 88 -104 148 -84 220 13 50 63 109 107 127 46 20
117 17 162 -6 21 -10 64 -47 94 -80 315 -349 386 -863 177 -1283 -83 -166
-121 -209 -675 -763 -359 -360 -554 -548 -605 -584 -255 -177 -551 -250 -840
-205 -161 24 -285 67 -410 140 -211 124 -394 328 -484 542 -151 361 -115 764
99 1090 48 73 149 179 577 608 489 492 518 523 518 556 0 44 -28 72 -71 72
-28 0 -90 -59 -564 -534 -564 -566 -588 -594 -675 -774 -46 -96 -93 -243 -111
-345 -20 -110 -17 -356 5 -460 115 -554 541 -962 1091 -1045 185 -28 370 -15
560 40 112 32 307 128 400 196 92 68 1137 1113 1203 1204 102 139 189 335 228
515 25 115 29 334 10 455 -44 268 -159 503 -336 688 -98 104 -148 129 -260
134 -60 2 -98 -1 -130 -13z"/>
<path d="M1057 2133 c-403 -402 -438 -449 -493 -653 -25 -94 -23 -271 5 -373
56 -211 201 -390 395 -489 115 -58 208 -80 346 -80 171 0 305 41 441 133 81
55 218 186 234 223 15 35 3 81 -25 96 -45 24 -68 12 -179 -94 -117 -112 -199
-161 -316 -191 -77 -19 -234 -19 -310 0 -392 102 -576 543 -378 905 29 52 102
132 380 411 371 374 370 373 318 424 -52 53 -51 53 -418 -312z"/>
<path d="M4059 1741 c-35 -35 -37 -61 -6 -95 17 -20 57 -34 195 -70 96 -26
187 -46 203 -46 37 0 69 32 69 69 0 57 -21 68 -225 121 -104 27 -194 50 -198
50 -5 0 -22 -13 -38 -29z"/>
<path d="M3805 1305 c-48 -48 -39 -66 123 -227 161 -162 179 -171 227 -123 48
48 39 66 -123 227 -161 162 -179 171 -227 123z"/>
<path d="M3378 1060 c-15 -11 -29 -29 -33 -39 -8 -25 90 -389 111 -412 39 -43
124 -10 124 47 0 46 -91 378 -108 396 -28 28 -65 32 -94 8z"/>
</g>
</svg>
